<svg width="100" version="1.1" id="Ebene_4" xmlns="http://www.w3.org/2000/svg" xmlns:xlink="http://www.w3.org/1999/xlink" x="0px" y="0px" viewBox="0 0 290.28 380.49" style="enable-background:new 0 0 290.28 380.49;" xml:space="preserve"><style type="text/css">
    .st0 {
      fill: #009fe3;
    }
    .st1 {
      fill: #ffffff;
    }
  </style><g><path d="M278.28,290.28H12c-6.6,0-12-5.4-12-12V12C0,5.4,5.4,0,12,0h266.28c6.6,0,12,5.4,12,12v266.28
		C290.28,284.88,284.88,290.28,278.28,290.28z"></path><g><path d="M45.98,362.14c0,10.4-8.83,14.91-18.73,14.91c-9.91,0-18.73-4.51-18.73-14.91v-26.78c0-10.1,6.67-15.79,18.73-15.79
			c12.06,0,18.73,5.69,18.73,15.79V362.14z M24.01,362.92c0,2.06,0.78,3.92,3.24,3.92s3.24-1.86,3.24-3.92v-29.23
			c0-2.06-0.78-3.92-3.24-3.92s-3.24,1.86-3.24,3.92V362.92z"></path><path d="M100.12,333.69c0-2.06-0.78-3.92-3.24-3.92s-3.24,1.86-3.24,3.92v29.23c0,2.06,0.78,3.92,3.24,3.92s3.24-1.86,3.24-3.92
			v-8.73h15.5v8.24c0,10.59-7.85,14.61-18.83,14.61c-11.57,0-18.64-4.81-18.64-15.6v-26.19c0-9.22,6.87-15.69,18.64-15.69
			c10,0,18.83,3.73,18.83,15.79v4.71h-15.5V333.69z"></path><path d="M123.96,376.36v-69.83h15.5v69.83H123.96z"></path><path d="M185.26,362.14c0,10.4-8.83,14.91-18.73,14.91s-18.73-4.51-18.73-14.91v-26.78c0-10.1,6.67-15.79,18.73-15.79
			s18.73,5.69,18.73,15.79V362.14z M163.29,362.92c0,2.06,0.78,3.92,3.24,3.92s3.24-1.86,3.24-3.92v-29.23
			c0-2.06-0.79-3.92-3.24-3.92s-3.24,1.86-3.24,3.92V362.92z"></path><path d="M215.46,333.69c0-2.06-0.79-3.92-3.24-3.92s-3.24,1.86-3.24,3.92v29.23c0,2.06,0.78,3.92,3.24,3.92s3.24-1.86,3.24-3.92
			v-8.73h15.5v8.24c0,10.59-7.85,14.61-18.83,14.61c-11.57,0-18.64-4.81-18.64-15.6v-26.19c0-9.22,6.87-15.69,18.64-15.69
			c10,0,18.83,3.73,18.83,15.79v4.71h-15.5V333.69z"></path><path d="M239.2,376.36v-69.83h15.5v39.33h0.2l7.94-25.6h15.01l-8.93,25.11l9.71,30.99h-15.79l-7.94-29.33h-0.2v29.33H239.2z"></path></g><path class="st0" d="M70.89,306.52l-7.75,24.62h-9.91l3.24-24.62H70.89z"></path><path class="st1" d="M64.34,63.33H43.78V32.3h57.2v140.94H64.34V63.33z"></path><path class="st1" d="M133.2,177.15c0-11.21,1.46-21.4,4.39-30.56c2.93-9.16,7.04-16.98,12.34-23.46s11.59-11.5,18.88-15.05
		c7.29-3.55,15.36-5.33,24.21-5.33c8.72,0,16.76,1.78,24.11,5.33s13.65,8.57,18.88,15.05s9.32,14.3,12.25,23.46
		c2.92,9.16,4.39,19.35,4.39,30.56c0,11.21-1.47,21.4-4.39,30.56c-2.93,9.16-7.01,17.01-12.25,23.55
		c-5.23,6.54-11.53,11.59-18.88,15.14c-7.35,3.55-15.39,5.33-24.11,5.33c-8.85,0-16.91-1.78-24.21-5.33
		c-7.29-3.55-13.58-8.6-18.88-15.14c-5.3-6.54-9.41-14.39-12.34-23.55C134.67,198.55,133.2,188.36,133.2,177.15z M169.46,177.15
		c0,6.23,0.56,11.9,1.68,17.01c1.12,5.11,2.71,9.53,4.76,13.27c2.06,3.74,4.51,6.64,7.38,8.69c2.87,2.06,6.1,3.09,9.72,3.09
		c3.49,0,6.7-1.03,9.63-3.09c2.93-2.05,5.39-4.95,7.38-8.69c1.99-3.74,3.55-8.16,4.68-13.27c1.12-5.11,1.68-10.78,1.68-17.01
		c0-6.1-0.56-11.74-1.68-16.92c-1.12-5.17-2.68-9.6-4.68-13.27c-2-3.68-4.46-6.54-7.38-8.6c-2.93-2.06-6.14-3.09-9.63-3.09
		c-3.61,0-6.85,1.03-9.72,3.09c-2.87,2.05-5.33,4.92-7.38,8.6c-2.05,3.67-3.64,8.1-4.76,13.27
		C170.02,165.4,169.46,171.04,169.46,177.15z"></path><circle class="st1" cx="145.14" cy="11.23" r="5.29"></circle><circle class="st1" cx="145.14" cy="276.46" r="5.29"></circle><circle class="st1" cx="277.75" cy="143.85" r="5.29"></circle><circle class="st1" cx="12.52" cy="143.85" r="5.29"></circle></g></svg>